<svg version="1.1" id="Layer_1" xmlns="http://www.w3.org/2000/svg" xmlns:xlink="http://www.w3.org/1999/xlink" x="0px" y="0px"
	 width="100%" viewBox="0 0 496 496" enable-background="new 0 0 496 496" xml:space="preserve">
<path fill="#000000" opacity="1.000000" stroke="none" 
	d="
M211.027771,214.653290 
	C218.151474,214.987106 224.842972,213.865936 231.416901,215.448792 
	C243.866867,218.446472 251.373001,228.512207 250.179230,240.563004 
	C248.937271,253.100098 239.758865,261.802887 226.907776,262.285034 
	C219.759521,262.553162 212.589951,262.227783 205.438461,262.446655 
	C201.648026,262.562653 200.583023,260.963715 200.622116,257.413086 
	C200.759567,244.930161 200.820053,232.442276 200.597168,219.961853 
	C200.522644,215.788879 201.954514,214.159592 206.041916,214.627502 
	C207.520615,214.796783 209.035065,214.653793 211.027771,214.653290 
M215.282440,247.949402 
	C215.611008,248.679138 215.736954,249.755463 216.299774,250.084549 
	C221.458328,253.100708 231.304214,249.967041 234.165833,244.467224 
	C236.417023,240.140610 236.229721,235.847076 233.693604,231.714935 
	C230.419006,226.379486 225.114349,226.251099 219.678787,226.245331 
	C216.508438,226.241974 215.167679,227.479050 215.228989,230.661453 
	C215.334274,236.124619 215.247772,241.591507 215.282440,247.949402 
z"/>
<path fill="#000000" opacity="1.000000" stroke="none" 
	d="
M122.847115,290.076874 
	C122.298920,289.341980 122.009399,288.896240 121.946091,288.420380 
	C120.577759,278.135132 120.974113,277.682800 131.271042,277.682617 
	C163.766708,277.681976 196.262665,277.748260 228.757706,277.606537 
	C233.229187,277.587036 235.542938,278.422546 235.296326,283.581696 
	C234.960632,290.604889 234.991013,291.021454 228.591293,291.028900 
	C194.929184,291.068085 161.266998,291.063385 127.604897,291.029236 
	C126.140083,291.027771 124.675720,290.587738 122.847115,290.076874 
z"/>
<path fill="#000000" opacity="1.000000" stroke="none" 
	d="
M152.461594,234.228287 
	C161.476746,237.122482 165.285233,241.349091 165.143433,248.013992 
	C164.995987,254.944611 160.189163,260.387238 152.065262,262.427856 
	C144.251953,264.390472 136.528015,263.591370 128.975357,260.978546 
	C123.486412,259.079620 123.092018,258.041138 125.601959,252.612762 
	C126.290024,251.124664 127.085388,249.686188 127.948204,247.996429 
	C132.934402,249.378662 137.302353,252.209839 142.452026,251.823044 
	C144.111038,251.698410 145.791931,251.771072 147.434326,251.545822 
	C149.024170,251.327774 150.354660,250.458099 150.413147,248.700455 
	C150.465439,247.128815 149.160904,246.377014 147.861725,245.994049 
	C143.080872,244.584778 138.203781,243.471863 133.490295,241.872086 
	C127.960991,239.995453 124.478813,236.128281 124.323883,230.068207 
	C124.171379,224.102814 126.594101,219.302460 132.063324,216.572083 
	C134.562958,215.324203 137.328735,214.270111 140.074280,213.923111 
	C146.227921,213.145432 152.371689,213.558029 158.303848,215.671600 
	C161.170853,216.693069 163.899216,217.818436 161.743042,221.642792 
	C160.116898,224.527039 160.412598,230.146072 154.291733,226.896225 
	C150.960358,225.127426 147.235916,225.106735 143.542892,225.287964 
	C141.424973,225.391907 139.299225,225.890717 138.864868,228.209778 
	C138.396164,230.712280 140.830048,231.036423 142.449554,231.550095 
	C145.611588,232.553055 148.866196,233.264114 152.461594,234.228287 
z"/>
<path fill="#000000" opacity="1.000000" stroke="none" 
	d="
M259.674683,258.049805 
	C258.502350,251.617249 260.778259,247.903061 266.067413,247.062424 
	C270.433838,246.368439 274.529968,249.214691 275.230560,253.429535 
	C276.031769,258.249725 273.085449,262.473511 268.260681,263.108032 
	C264.382568,263.618011 261.576141,261.858337 259.674683,258.049805 
z"/>
<path fill="#000000" opacity="1.000000" stroke="none" 
	d="
M173.669662,251.938538 
	C176.218781,247.316284 179.823761,246.048401 184.346909,247.681442 
	C187.914734,248.969589 189.520004,251.767776 189.257751,255.484787 
	C188.963455,259.655731 186.557556,262.210968 182.527939,263.048279 
	C176.597717,264.280579 172.405777,259.200745 173.669662,251.938538 
z"/>
<path fill="#000000" opacity="1.000000" stroke="none" 
	d="
M401.414612,279.947327 
	C400.993317,280.036285 400.827759,280.058929 400.667297,280.101013 
	C400.508759,280.142578 400.355377,280.203766 400.199707,280.256348 
	C403.702454,281.684204 402.825653,285.026520 403.719238,287.899078 
	C400.755981,288.493408 397.567169,289.659729 395.589752,287.303436 
	C393.764618,285.128632 394.612946,281.815399 395.169495,279.091522 
	C395.744385,276.277893 400.512360,275.039185 402.555664,277.005798 
	C404.001160,278.397064 403.249084,279.318420 401.414612,279.947327 
z"/>
<path fill="#000000" opacity="1.000000" stroke="none" 
	d="
M305.319672,277.467346 
	C307.833069,278.447815 309.148743,280.091949 308.031036,282.239197 
	C306.999878,284.220093 307.987457,286.051819 307.834106,288.213226 
	C304.922638,287.710388 302.360199,283.980804 299.736267,288.185364 
	C296.828918,279.116150 298.462555,276.007172 305.319672,277.467346 
z"/>
<path fill="#000000" opacity="1.000000" stroke="none" 
	d="
M410.729004,284.314453 
	C408.530701,282.568085 406.137909,280.973022 409.007660,278.258179 
	C410.886383,276.480865 414.122955,275.700287 415.066681,277.937103 
	C416.174530,280.563019 418.434631,284.135986 415.994537,286.971527 
	C413.819946,289.498474 410.718628,288.921753 408.034485,287.098907 
	C408.290710,284.405914 410.628662,286.351593 411.466583,285.230042 
	C411.517365,285.162079 411.392883,284.927917 411.305695,284.801727 
	C411.213715,284.668671 411.068573,284.572388 410.729004,284.314453 
z"/>
<path fill="#000000" opacity="1.000000" stroke="none" 
	d="
M282.103943,285.180298 
	C279.662659,285.117218 278.666016,286.937500 276.967804,287.934570 
	C274.851227,285.056519 275.705048,281.909821 276.045502,278.961243 
	C276.280182,276.928619 278.214111,276.666321 279.930389,276.872437 
	C282.071686,277.129486 284.320709,277.505554 285.083282,279.969604 
	C285.836365,282.403137 284.813293,284.120087 282.103943,285.180298 
z"/>
<path fill="#000000" opacity="1.000000" stroke="none" 
	d="
M330.685120,287.847046 
	C328.207458,288.192688 327.653046,285.796234 325.958191,285.229736 
	C324.114380,285.195709 324.692505,287.977753 322.370300,287.862610 
	C319.933594,284.542114 322.134247,281.056610 321.878815,277.601288 
	C325.497955,277.321838 325.738525,280.617126 327.875244,281.574677 
	C329.622864,280.880157 328.002136,278.248718 330.516022,277.520477 
	C332.051453,280.813599 331.443909,284.250000 330.685120,287.847046 
z"/>
<path fill="#000000" opacity="1.000000" stroke="none" 
	d="
M263.237549,278.696960 
	C265.702667,276.267090 267.989624,275.861359 270.306671,278.147522 
	C270.628815,280.399933 268.471802,279.657471 267.585541,280.628418 
	C269.246216,282.799774 274.481018,284.527344 269.279724,287.866028 
	C267.550049,288.976318 264.546600,289.436646 262.967560,286.577515 
	C264.139709,284.752502 265.985992,286.585602 267.213501,285.424072 
	C265.126221,283.693512 261.769531,282.825592 263.237549,278.696960 
z"/>
<path fill="#000000" opacity="1.000000" stroke="none" 
	d="
M254.709656,287.456726 
	C253.449936,286.148773 252.454086,285.067871 251.494415,284.026215 
	C249.662659,284.749023 250.837616,287.149933 248.651764,287.749176 
	C246.807404,284.449860 247.863190,281.078156 247.899292,277.705231 
	C251.560043,277.292664 251.616531,280.842865 253.879501,281.634521 
	C255.623505,280.937164 254.058685,278.309998 256.400421,277.559906 
	C258.100708,280.688599 257.426483,284.065552 257.042542,287.335907 
	C256.927826,288.312958 255.767319,288.074768 254.709656,287.456726 
z"/>
<path fill="#000000" opacity="1.000000" stroke="none" 
	d="
M346.021576,278.290283 
	C346.230560,280.555450 344.921021,280.138641 343.806244,279.874268 
	C341.675385,279.368896 340.184692,280.083282 339.556335,282.164490 
	C339.123901,283.596802 339.687897,284.876953 341.087097,285.438446 
	C343.456909,286.389404 344.274048,284.584290 345.154755,282.938934 
	C345.264282,282.734344 345.713715,282.711731 346.347076,282.479675 
	C347.714294,284.534119 347.840332,286.691437 345.489441,287.763672 
	C342.664703,289.052002 339.398499,289.023102 337.530945,286.000824 
	C335.950806,283.443665 335.971069,280.462708 338.575439,278.391724 
	C340.757446,276.656616 343.304596,275.954468 346.021576,278.290283 
z"/>
<path fill="#000000" opacity="1.000000" stroke="none" 
	d="
M380.579437,280.780701 
	C379.854279,279.451477 379.181091,278.423187 380.534058,277.332947 
	C383.557587,277.235046 382.969513,281.011963 385.347015,281.880707 
	C387.617004,281.248688 387.070038,277.579010 390.919220,277.197662 
	C390.407745,281.322144 388.769226,284.694244 386.368896,287.608765 
	C385.246277,288.971893 383.912781,287.792450 383.250061,286.507172 
	C382.337769,284.737854 381.569305,282.894409 380.579437,280.780701 
z"/>
<path fill="#000000" opacity="1.000000" stroke="none" 
	d="
M359.844238,278.876160 
	C361.223999,276.757629 362.609863,277.270874 362.359070,279.053772 
	C361.714203,283.638123 363.279846,286.263763 368.451660,286.696259 
	C362.765076,290.095032 359.904205,288.755554 359.727539,283.234589 
	C359.685150,281.910583 359.738190,280.583527 359.844238,278.876160 
z"/>
<path fill="#000000" opacity="1.000000" stroke="none" 
	d="
M312.908447,283.913513 
	C313.160187,281.481934 312.335693,279.157959 314.781738,277.415558 
	C317.188629,281.008728 316.641296,284.387054 315.440948,287.988373 
	C312.741669,287.434418 313.145508,285.707764 312.908447,283.913513 
z"/>
<path fill="#000000" opacity="1.000000" stroke="none" 
	d="
M372.687744,278.430847 
	C374.369446,276.310242 375.139374,277.720612 375.382996,279.008118 
	C375.954651,282.029633 375.929169,285.057007 374.136322,288.333374 
	C371.104767,285.147034 373.138489,281.756042 372.687744,278.430847 
z"/>
<path fill="#000000" opacity="1.000000" stroke="none" 
	d="
M293.244873,285.579926 
	C292.260406,288.522980 291.149200,288.166351 290.791595,285.889343 
	C290.368042,283.192596 290.368134,280.388519 291.271362,277.201630 
	C294.463470,279.681091 292.878204,282.649384 293.244873,285.579926 
z"/>
<path fill="#000000" opacity="1.000000" stroke="none" 
	d="
M238.803558,281.304932 
	C238.955887,279.648621 238.646408,278.158508 240.721100,277.728241 
	C241.599411,281.071259 241.796692,284.269440 240.478958,287.975433 
	C238.189362,285.956085 239.024048,283.700409 238.803558,281.304932 
z"/>
</svg>